<svg id="icons" xmlns="http://www.w3.org/2000/svg" viewBox="0 0 64 64"><defs><style>.cls-1{fill:#fff;}.cls-2{fill:#736b6d;}.cls-3,.cls-4,.cls-6{fill:none;stroke-miterlimit:10;stroke-width:2px;}.cls-3{stroke:#ff7652;}.cls-4{stroke:#524a4d;}.cls-5{fill:#75b8fa;}.cls-6{stroke:#e2dddf;}</style></defs><title>032-processing-algorithm</title><circle class="cls-1" cx="32" cy="8" r="7"/><rect class="cls-2" x="18" y="23" width="28" height="14"/><circle class="cls-3" cx="32" cy="8" r="7"/><circle class="cls-1" cx="56" cy="8" r="7"/><circle class="cls-3" cx="56" cy="8" r="7"/><circle class="cls-1" cx="8" cy="8" r="7"/><circle class="cls-3" cx="8" cy="8" r="7"/><line class="cls-4" x1="32" y1="23" x2="32" y2="18"/><line class="cls-4" x1="32" y1="42" x2="32" y2="37"/><polyline class="cls-4" points="8 18 8 28 18 28"/><polyline class="cls-4" points="56 18 56 28 46 28"/><polyline class="cls-4" points="8 42 8 32 18 32"/><polyline class="cls-4" points="56 42 56 32 46 32"/><polygon class="cls-5" points="16 64 0 64 0 44 13 44 16 47 16 64"/><line class="cls-4" x1="7" y1="54" x2="9" y2="54"/><line class="cls-4" x1="3" y1="54" x2="5" y2="54"/><line class="cls-4" x1="11" y1="54" x2="13" y2="54"/><polygon class="cls-5" points="40 64 24 64 24 44 37 44 40 47 40 64"/><line class="cls-4" x1="31" y1="54" x2="33" y2="54"/><line class="cls-4" x1="27" y1="54" x2="29" y2="54"/><line class="cls-4" x1="35" y1="54" x2="37" y2="54"/><polygon class="cls-5" points="64 64 48 64 48 44 61 44 64 47 64 64"/><line class="cls-4" x1="55" y1="54" x2="57" y2="54"/><line class="cls-4" x1="51" y1="54" x2="53" y2="54"/><line class="cls-4" x1="59" y1="54" x2="61" y2="54"/><line class="cls-6" x1="31" y1="30" x2="33" y2="30"/><line class="cls-6" x1="35" y1="30" x2="37" y2="30"/><line class="cls-6" x1="27" y1="30" x2="29" y2="30"/></svg>